{"title":"The Diabolical 2015 HDRIP x264 AC3 TiTAN","uid":12583089,"size":1059596100,"categoryP":"video","categoryS":"movies","magnet":"?xt=urn:btih:6ea54546dec9ccb797cdd15b891b899a08397091&amp;dn=The+Diabolical+2015+HDRIP+x264+AC3+TiTAN&amp;tr=udp%3A%2F%2Ftracker.leechers-paradise.org%3A6969&amp;tr=udp%3A%2F%2Fzer0day.ch%3A1337&amp;tr=udp%3A%2F%2Fopen.demonii.com%3A1337&amp;tr=udp%3A%2F%2Ftracker.coppersurfer.tk%3A6969&amp;tr=udp%3A%2F%2Fexodus.desync.com%3A6969","seeders":0,"leechers":0,"uploader":"xxxlavalxxx","files":2,"time":1444976688,"description":"http://extraimago.com/image/9ea\r\n \nhttp://www.imdb.com/title/tt3603808/\r\n\r\n\r\nMadison, a single mother, and her children, are awoken nightly by an increasingly strange and intense presence. She seeks help from her scientist boyfriend Nikolai, who begins a hunt to destroy the violent spirit that paranormal experts are too frightened to take on.\r\n\r\nDirector: Alistair Legrand\r\nWriters: Luke Harvis, Alistair Legrand\r\nStars: Ali Larter, Max Rose, Chloe Perrin \r\nGenres: Horror | Sci-Fi | Thriller\r\nCountry: USA\r\nLanguage: English\r\n\r\n\r\nSource: Playnow -THX BUDDY\r\n\r\nGeneral\r\n\r\nFormat: Matroska\r\nFormat version: Version 2\r\nFile size: 1 011 MiB\r\nDuration: 1h 26mn\r\nOverall bit rate mode: Variable\r\nOverall bit rate: 1 641 Kbps\r\nEncoded date: UTC 2015-10-16 00:58:00\r\n\r\nVideo\r\nID: 1\r\nFormat: AVC\r\nFormat/Info: Advanced Video Codec\r\nFormat profile:   \r\nFormat settings, CABAC: Yes\r\nFormat settings, ReFrames: 3 frames\r\nCodec ID: V_MPEG4/ISO/AVC\r\nDuration: 1h 26mn\r\nBit rate mode: Variable\r\nBit rate: 1 225 Kbps\r\nMaximum bit rate: 40.0 Mbps\r\nWidth: 720 pixels\r\nHeight: 304 pixels\r\nDisplay aspect ratio: 2.35:1\r\nFrame rate mode: Constant\r\nFrame rate: 23.976 fps\r\nColor space: YUV\r\nChroma subsampling: 4:2:0\r\nBit depth: 8 bits\r\nScan type: Progressive\r\nBits/(Pixel*Frame): 0.233\r\nStream size: 754 MiB (75%)\r\nDefault: Yes\r\nForced: No\r\nColor primaries: BT.709\r\nTransfer characteristics: BT.709\r\nMatrix coefficients: BT.709\r\n\r\nAudio\r\nID: 2\r\nFormat: AC-3\r\nFormat/Info: Audio Coding 3\r\nMode extension: CM (complete main)\r\nFormat settings, Endianness: Big\r\nCodec ID: A_AC3\r\nDuration: 1h 26mn\r\nBit rate mode: Constant\r\nBit rate: 384 Kbps\r\nChannel(s): 6 channels\r\nChannel positions: Front: L C R, Side: L R, LFE\r\nSampling rate: 48.0 KHz\r\nBit depth: 16 bits\r\nCompression mode: Lossy\r\nStream size: 236 MiB (23%)\r\nLanguage: English\r\nDefault: Yes\r\n\r\n \nhttp://extraimago.com/image/9ew \nhttp://extraimago.com/image/9e2 \nhttp://extraimago.com/image/9eN \nhttp://extraimago.com/image/9eT \nhttp://extraimago.com/image/9ej","torrent":{"xt":"urn:btih:6ea54546dec9ccb797cdd15b891b899a08397091","amp;dn":"The+Diabolical+2015+HDRIP+x264+AC3+TiTAN","amp;tr":["udp%3A%2F%2Ftracker.leechers-paradise.org%3A6969","udp%3A%2F%2Fzer0day.ch%3A1337","udp%3A%2F%2Fopen.demonii.com%3A1337","udp%3A%2F%2Ftracker.coppersurfer.tk%3A6969","udp%3A%2F%2Fexodus.desync.com%3A6969"],"infoHash":"6ea54546dec9ccb797cdd15b891b899a08397091","infoHashBuffer":{"type":"Buffer","data":[110,165,69,70,222,201,204,183,151,205,209,91,137,27,137,154,8,57,112,145]},"announce":[],"urlList":[]}}